<mxfile host="app.diagrams.net" modified="2024-05-23T17:16:34.785Z" agent="Mozilla/5.0 (Windows NT 10.0; Win64; x64) AppleWebKit/537.36 (KHTML, like Gecko) Chrome/125.0.0.0 Safari/537.36 Edg/125.0.0.0" version="24.4.6" etag="9E5_9uwhK8iaHXJUd1qW" type="github">
  <diagram name="Page-1" id="CrutrOeeuzJBOS25kfF8">
    <mxGraphModel>
      <root>
        <mxCell id="0" />
        <mxCell id="1" parent="0" />
      </root>
    </mxGraphModel>
  </diagram>
</mxfile>
